<svg width="2797" height="495" xmlns="http://www.w3.org/2000/svg"><g fill="none" fill-rule="evenodd"><path d="M843.82 168.132v96.617c0 43.763-25.367 65.116-73.987 65.116-48.62 0-74.833-21.353-74.833-65.116v-96.617h39.953v96.617c0 20.93 10.781 30.866 34.88 30.866 23.887 0 34.245-9.725 34.245-30.866v-96.617h39.742zm216.974 112.261c0 28.753-18.603 46.3-63.418 46.3h-77.158v-158.56h75.678c39.108 0 58.133 16.067 58.133 40.802 0 18.182-9.512 28.964-23.464 34.25v.422c20.082 5.074 30.229 18.182 30.229 36.786zm-39.53-2.96c0-12.05-6.976-17.758-24.1-17.758H958.48v36.152h39.108c16.277 0 23.675-4.651 23.675-18.393zm-5.285-61.31c0-11.416-6.342-16.279-21.562-16.279H958.48v32.981h37.416c13.74 0 20.083-5.285 20.083-16.702zm157.15 77.59h86.882l-.634 32.98h-126.201v-158.56h122.607l.634 33.403h-83.288v29.386h69.97v29.387h-69.97v33.404zm292.44-75.264c0 21.564-11.203 38.689-31.074 43.974l43.547 64.27h-47.352l-31.92-56.447h-28.327v56.447h-39.953v-158.56h68.914c43.758 0 66.166 16.7 66.166 50.316zm-41.644 1.691c0-15.222-6.764-20.718-25.155-20.718h-28.327v42.705h27.693c18.18 0 25.79-5.496 25.79-21.987z" fill="#000"/><path d="M1654.436 280.01c0 29.598-22.408 49.26-62.995 49.26-21.562 0-39.953-4.863-54.962-12.897l3.383-21.564c15.854 8.668 32.343 13.53 51.79 13.53 26.213 0 39.108-10.782 39.108-26.638 0-35.095-92.8-15.856-92.8-70.824 0-24.524 17.756-45.877 60.457-45.877 18.18 0 36.36 3.383 50.1 9.09l-3.382 20.508c-15.643-5.285-30.018-8.245-45.872-8.245-28.115 0-37.84 11.416-37.84 23.044 0 34.038 93.013 13.954 93.013 70.613zm102.822 24.947h96.395l-.423 21.353h-120.282V167.748h116.054l.423 21.565h-92.167v45.243h79.06v19.027h-79.06v51.374zm299.629-91.12c0 23.678-12.684 39.535-36.36 43.129l48.62 69.344h-29.595l-41.432-64.693h-39.953v64.693h-24.522V167.748h65.32c39.32 0 57.922 16.068 57.922 46.089zm-25.367 1.057c0-18.816-9.724-27.061-32.978-27.061h-40.375v55.39h39.107c23.887 0 34.246-8.456 34.246-28.329zm226.063-47.146h26.001l-68.068 158.562h-27.27l-68.067-158.562h27.27l48.408 120.507 6.13 15.856h.634l5.92-15.856 49.042-120.507zm102.189 158.562V167.748h24.944V326.31h-24.944zm236.844-153.276l-2.748 20.93c-10.358-4.017-24.944-7.188-40.587-7.188-40.376 0-56.864 16.279-56.864 59.196 0 45.454 16.911 61.733 57.71 61.733 15.431 0 28.749-3.382 40.164-8.456l3.17 19.45c-12.048 5.92-29.805 10.57-46.505 10.57-54.962 0-80.329-27.906-80.329-83.297 0-52.431 24.944-80.972 81.809-80.972 15.854 0 33.822 3.594 44.18 8.034zm103.668 131.923h96.395l-.423 21.353h-120.282V167.748h116.054l.423 21.565h-92.167v45.243h79.06v19.027h-79.06v51.374z" fill="#FF7B00"/><path d="M247.5 470C370.383 470 470 370.383 470 247.5S370.383 25 247.5 25 25 124.617 25 247.5 124.617 470 247.5 470zm0 25C110.81 495 0 384.19 0 247.5S110.81 0 247.5 0 495 110.81 495 247.5 384.19 495 247.5 495zm-95-286.336l95-72.907 95 72.907V322.5h-190V208.664zm102.61-98.58a12.5 12.5 0 0 0-15.22 0l-107.5 82.5a12.5 12.5 0 0 0-4.89 9.916V335c0 6.904 5.596 12.5 12.5 12.5h215c6.904 0 12.5-5.596 12.5-12.5V202.5a12.5 12.5 0 0 0-4.89-9.916l-107.5-82.5zm40.715 129.927C283.108 253.755 267.279 260.5 247.5 260.5c-19.725 0-35.519-6.867-48.24-20.896-4.637-5.115-12.542-5.501-17.656-.864-5.115 4.637-5.501 12.542-.864 17.656C198.243 275.7 220.783 285.5 247.5 285.5c26.663 0 49.168-9.589 66.675-28.51 4.689-5.068 4.382-12.977-.686-17.665-5.067-4.689-12.976-4.382-17.664.686z" fill="#FF7B00" fill-rule="nonzero"/></g></svg>