<svg width="13" height="12" xmlns="http://www.w3.org/2000/svg" xmlns:xlink="http://www.w3.org/1999/xlink"><defs><path id="a" d="M.5 0H7v12H.5z"/><path id="c" d="M0 0h6.5v12H0z"/></defs><g fill="none" fill-rule="evenodd"><g transform="translate(6)"><mask id="b" fill="#fff"><use xlink:href="#a"/></mask><path d="M6.473 4.19H2.674a.526.526 0 0 1-.502-.352L1.002.351A.53.53 0 0 0 .5 0a.53.53 0 0 0-.502.351l-1.17 3.487a.526.526 0 0 1-.502.351h-3.8a.515.515 0 0 0-.5.344c-.071.21.005.441.188.57l3.083 2.169a.494.494 0 0 1 .19.563l-1.175 3.502a.5.5 0 0 0 .079.458c.1.131.258.208.426.205.111 0 .22-.036.31-.1l3.06-2.154a.546.546 0 0 1 .625 0L3.873 11.9c.09.065.199.1.31.1a.524.524 0 0 0 .426-.204.5.5 0 0 0 .079-.458L3.513 7.835a.494.494 0 0 1 .19-.563l3.083-2.169c.183-.129.259-.36.187-.57a.515.515 0 0 0-.5-.344z" fill="#DDD" mask="url(#b)"/></g><g><mask id="d" fill="#fff"><use xlink:href="#c"/></mask><path d="M12.473 4.19H8.674a.526.526 0 0 1-.502-.352L7.002.351A.53.53 0 0 0 6.5 0a.53.53 0 0 0-.502.351l-1.17 3.487a.526.526 0 0 1-.502.351h-3.8a.515.515 0 0 0-.5.344c-.071.21.005.441.188.57l3.083 2.169a.494.494 0 0 1 .19.563l-1.175 3.502a.5.5 0 0 0 .079.458c.1.131.258.208.426.205.111 0 .22-.036.31-.1l3.06-2.154a.546.546 0 0 1 .625 0L9.873 11.9c.09.065.199.1.31.1a.524.524 0 0 0 .426-.204.5.5 0 0 0 .079-.458L9.513 7.835a.494.494 0 0 1 .19-.563l3.083-2.169c.183-.129.259-.36.187-.57a.515.515 0 0 0-.5-.344z" fill="#FF7B00" mask="url(#d)"/></g></g></svg>