<svg width="1200" height="683" xmlns="http://www.w3.org/2000/svg"><g fill="none" fill-rule="evenodd"><path d="M599.5 470C722.383 470 822 370.383 822 247.5S722.383 25 599.5 25 377 124.617 377 247.5 476.617 470 599.5 470zm0 25C462.81 495 352 384.19 352 247.5S462.81 0 599.5 0 847 110.81 847 247.5 736.19 495 599.5 495zm-95-286.336l95-72.907 95 72.907V322.5h-190V208.664zm102.61-98.58a12.5 12.5 0 0 0-15.22 0l-107.5 82.5a12.5 12.5 0 0 0-4.89 9.916V335c0 6.904 5.596 12.5 12.5 12.5h215c6.904 0 12.5-5.596 12.5-12.5V202.5a12.5 12.5 0 0 0-4.89-9.916l-107.5-82.5zm40.715 129.927C635.108 253.755 619.279 260.5 599.5 260.5c-19.725 0-35.519-6.867-48.24-20.896-4.637-5.115-12.542-5.501-17.656-.864-5.115 4.637-5.501 12.542-.864 17.656C550.243 275.7 572.783 285.5 599.5 285.5c26.663 0 49.168-9.589 66.675-28.51 4.689-5.068 4.382-12.977-.686-17.665-5.067-4.689-12.976-4.382-17.664.686z" fill="#FF7B00" fill-rule="nonzero"/><path d="M84.959 590.784v55.043c0 24.931-14.482 37.096-42.238 37.096C14.964 682.923 0 670.758 0 645.827v-55.043h22.809v55.043c0 11.923 6.154 17.584 19.912 17.584 13.637 0 19.55-5.54 19.55-17.584v-55.043h22.688zm123.867 63.955c0 16.38-10.62 26.377-36.204 26.377h-44.048v-90.332h43.203c22.326 0 33.187 9.154 33.187 23.246 0 10.358-5.43 16.5-13.395 19.511v.241c11.464 2.89 17.257 10.358 17.257 20.957zm-22.567-1.686c0-6.865-3.983-10.117-13.758-10.117h-22.084v20.596h22.326c9.292 0 13.516-2.65 13.516-10.479zm-3.017-34.928c0-6.504-3.62-9.274-12.31-9.274h-20.515v18.789h21.36c7.844 0 11.465-3.011 11.465-9.515zm89.714 44.202h49.6l-.362 18.79h-72.046v-90.333h69.994l.363 19.03h-47.549v16.742h39.946v16.741h-39.946v19.03zm166.95-42.877c0 12.285-6.396 22.04-17.74 25.052l24.86 36.614h-27.032l-18.222-32.158H385.6v32.158h-22.808v-90.332h39.342c24.98 0 37.772 9.515 37.772 28.666zm-23.774.963c0-8.672-3.861-11.803-14.36-11.803H385.6v24.33h15.81c10.378 0 14.722-3.132 14.722-12.527z" fill="#000"/><path d="M547.727 654.52c0 16.863-12.792 28.064-35.962 28.064-12.31 0-22.809-2.77-31.377-7.347l1.93-12.285c9.052 4.938 18.465 7.708 29.567 7.708 14.965 0 22.326-6.143 22.326-15.176 0-19.993-52.978-9.033-52.978-40.348 0-13.971 10.137-26.136 34.514-26.136 10.379 0 20.757 1.927 28.601 5.179l-1.93 11.683c-8.93-3.011-17.137-4.697-26.188-4.697-16.05 0-21.602 6.504-21.602 13.128 0 19.391 53.1 7.95 53.1 40.228zm58.7 14.213h55.03l-.24 12.165h-68.668v-90.332h66.254l.24 12.285h-52.616v25.775h45.135v10.84h-45.135v29.267zm171.053-51.91c0 13.489-7.24 22.522-20.757 24.57l27.757 39.505h-16.895l-23.654-36.856h-22.808v36.856h-14v-90.332h37.291c22.447 0 33.066 9.153 33.066 26.256zm-14.481.601c0-10.719-5.552-15.416-18.826-15.416h-23.05v31.556h22.326c13.636 0 19.55-4.818 19.55-16.14zm129.056-26.858H906.9l-38.86 90.332h-15.567l-38.859-90.332h15.568l27.636 68.652 3.5 9.033h.361l3.38-9.033 27.997-68.652zm58.338 90.332v-90.332h14.24v90.332h-14.24zm135.211-87.321l-1.569 11.924c-5.913-2.289-14.24-4.095-23.17-4.095-23.05 0-32.463 9.274-32.463 33.723 0 25.896 9.654 35.17 32.945 35.17 8.81 0 16.413-1.927 22.93-4.818l1.81 11.08c-6.879 3.373-17.016 6.023-26.55 6.023-31.377 0-45.858-15.899-45.858-47.455 0-29.87 14.24-46.129 46.703-46.129 9.05 0 19.309 2.048 25.222 4.577zm59.183 75.156h55.03l-.242 12.165h-68.667v-90.332h66.254l.241 12.285h-52.616v25.775h45.134v10.84h-45.134v29.267z" fill="#FF7B00"/></g></svg>